<svg id="Capa_1" data-name="Capa 1" xmlns="http://www.w3.org/2000/svg" xmlns:xlink="http://www.w3.org/1999/xlink" viewBox="0 0 369.04 368.98"><defs><style>.cls-1{fill:url(#Degradado_sin_nombre_11);}.cls-2{fill:url(#Degradado_sin_nombre_11-2);}.cls-3{fill:url(#Degradado_sin_nombre_11-3);}.cls-4{fill:url(#Degradado_sin_nombre_11-4);}.cls-5{fill:url(#Degradado_sin_nombre_11-5);}.cls-6{fill:url(#Degradado_sin_nombre_11-6);}</style><linearGradient id="Degradado_sin_nombre_11" x1="850.07" y1="447.72" x2="1138.42" y2="673.82" gradientUnits="userSpaceOnUse"><stop offset="0" stop-color="#2196f3"/><stop offset="1" stop-color="#1a237e"/></linearGradient><linearGradient id="Degradado_sin_nombre_11-2" x1="823.17" y1="468.71" x2="1100.06" y2="685.82" xlink:href="#Degradado_sin_nombre_11"/><linearGradient id="Degradado_sin_nombre_11-3" x1="913.88" y1="366.74" x2="1224.69" y2="610.43" xlink:href="#Degradado_sin_nombre_11"/><linearGradient id="Degradado_sin_nombre_11-4" x1="740.94" y1="508.76" x2="1049.78" y2="750.93" xlink:href="#Degradado_sin_nombre_11"/><linearGradient id="Degradado_sin_nombre_11-5" x1="837.45" y1="440.37" x2="1144.57" y2="681.18" xlink:href="#Degradado_sin_nombre_11"/><linearGradient id="Degradado_sin_nombre_11-6" x1="832.62" y1="454.63" x2="1123.32" y2="682.57" xlink:href="#Degradado_sin_nombre_11"/></defs><title>logo meteorDG degradado azul V1.2 sin fondo sin letras</title><g id="Compo_con_letras_degradado_azul" data-name="Compo con letras degradado azul"><g id="logo"><path class="cls-1" d="M1072.76,608.76v25h21.29a92.53,92.53,0,0,1-45.79,45v-168a92.24,92.24,0,0,1,53.82,73h25.16a117.2,117.2,0,0,0-104-105.33V711.09a117.23,117.23,0,0,0,103.66-102.33Z" transform="translate(-808.67 -392.73)"/><path class="cls-2" d="M893.76,594.76a117.16,117.16,0,0,0,104.5,116.33V478.43A117.16,117.16,0,0,0,893.76,594.76Zm79.5,84a92,92,0,0,1,0-168Z" transform="translate(-808.67 -392.73)"/><path class="cls-3" d="M1049.58,458.22c-13.42-8.43-27.57-16.26-36.7-18.32a131.88,131.88,0,0,1-8,13.07A143,143,0,0,1,1049.58,458.22Z" transform="translate(-808.67 -392.73)"/><path class="cls-4" d="M869,588.84a131.88,131.88,0,0,1-13.07,8c2.06,9.13,9.89,23.29,18.32,36.7A143,143,0,0,1,869,588.84Z" transform="translate(-808.67 -392.73)"/><path class="cls-5" d="M910.36,494.36a141.07,141.07,0,0,1,67-37.57,131.58,131.58,0,0,0-31-12.65s-4.24,9.9-14.85,29c0,0-40.3-14.85-58-15.56.71,17.68,15.56,58,15.56,58-19.1,10.61-29,14.85-29,14.85a131.58,131.58,0,0,0,12.65,31A141.12,141.12,0,0,1,910.36,494.36Z" transform="translate(-808.67 -392.73)"/><path class="cls-6" d="M1010.76,761.71a165.89,165.89,0,0,1-118.06-48.9c-23.62-23.62-66.22-79.29-79.94-128.1l-4.09-14.53,15-1.31a65.3,65.3,0,0,0,12.44-2.67,256.66,256.66,0,0,1-16.49-49.31l-3.51-15.66,15.63.42c.75,0,6.52-.43,15.8-3.76-5-16.33-13.77-47.1-15.08-68.14l-.88-14.13,14.13.88c21,1.31,51.81,10,68.14,15.08,3.33-9.28,3.72-15.05,3.76-15.8l-.43-16,15.67,3.84a256.66,256.66,0,0,1,49.31,16.49,65.39,65.39,0,0,0,2.67-12.48l1.39-14.94,14.45,4c48.81,13.72,104.48,56.32,128.1,79.94a167,167,0,0,1-118,285ZM841.13,590.82c15,39.13,48.15,83.22,69.25,104.31a142,142,0,1,0,200.75-200.75c-21.09-21.1-65.18-54.23-104.31-69.25a69.92,69.92,0,0,1-8.19,18.73l-6.45,10-10.29-5.92c-.17-.1-16.61-9.41-41.74-16.6a119.65,119.65,0,0,1-7.93,21.09l-4.8,10L917,458.81c-.38-.13-31.92-10.73-57.51-15.37,4.64,25.6,15.24,57.13,15.37,57.51l3.55,10.47-10,4.8a120.9,120.9,0,0,1-21.09,7.94c7.21,25.27,16.49,41.55,16.6,41.73l5.92,10.29-10,6.45A69.92,69.92,0,0,1,841.13,590.82Z" transform="translate(-808.67 -392.73)"/></g></g></svg>