<svg id="Capa_1" data-name="Capa 1" xmlns="http://www.w3.org/2000/svg" xmlns:xlink="http://www.w3.org/1999/xlink" viewBox="0 0 1376.63 368.98"><defs><style>.cls-1{fill:url(#Degradado_sin_nombre_11);}.cls-2{fill:url(#Degradado_sin_nombre_11-2);}.cls-3{fill:url(#Degradado_sin_nombre_11-3);}.cls-4{fill:url(#Degradado_sin_nombre_11-4);}.cls-5{fill:url(#Degradado_sin_nombre_11-5);}.cls-6{fill:url(#Degradado_sin_nombre_11-6);}.cls-7{fill:url(#Degradado_sin_nombre_11-7);}.cls-8{fill:url(#Degradado_sin_nombre_11-8);}.cls-9{fill:url(#Degradado_sin_nombre_11-9);}.cls-10{fill:url(#Degradado_sin_nombre_11-10);}.cls-11{fill:url(#Degradado_sin_nombre_11-11);}.cls-12{fill:url(#Degradado_sin_nombre_11-12);}.cls-13{fill:url(#Degradado_sin_nombre_11-13);}.cls-14{fill:url(#Degradado_sin_nombre_11-14);}</style><linearGradient id="Degradado_sin_nombre_11" x1="850.07" y1="447.72" x2="1138.42" y2="673.82" gradientUnits="userSpaceOnUse"><stop offset="0" stop-color="#2196f3"/><stop offset="1" stop-color="#1a237e"/></linearGradient><linearGradient id="Degradado_sin_nombre_11-2" x1="823.17" y1="468.71" x2="1100.06" y2="685.82" xlink:href="#Degradado_sin_nombre_11"/><linearGradient id="Degradado_sin_nombre_11-3" x1="913.88" y1="366.74" x2="1224.69" y2="610.43" xlink:href="#Degradado_sin_nombre_11"/><linearGradient id="Degradado_sin_nombre_11-4" x1="740.94" y1="508.76" x2="1049.78" y2="750.93" xlink:href="#Degradado_sin_nombre_11"/><linearGradient id="Degradado_sin_nombre_11-5" x1="837.45" y1="440.37" x2="1144.57" y2="681.18" xlink:href="#Degradado_sin_nombre_11"/><linearGradient id="Degradado_sin_nombre_11-6" x1="832.62" y1="454.63" x2="1123.32" y2="682.57" xlink:href="#Degradado_sin_nombre_11"/><linearGradient id="Degradado_sin_nombre_11-7" x1="1227.33" y1="514.48" x2="1385.81" y2="638.75" xlink:href="#Degradado_sin_nombre_11"/><linearGradient id="Degradado_sin_nombre_11-8" x1="1405.61" y1="564.11" x2="1491.11" y2="631.15" xlink:href="#Degradado_sin_nombre_11"/><linearGradient id="Degradado_sin_nombre_11-9" x1="1502.09" y1="547.16" x2="1593.58" y2="618.9" xlink:href="#Degradado_sin_nombre_11"/><linearGradient id="Degradado_sin_nombre_11-10" x1="1587.26" y1="564.11" x2="1672.76" y2="631.15" xlink:href="#Degradado_sin_nombre_11"/><linearGradient id="Degradado_sin_nombre_11-11" x1="1705.52" y1="562.38" x2="1793.35" y2="631.25" xlink:href="#Degradado_sin_nombre_11"/><linearGradient id="Degradado_sin_nombre_11-12" x1="1811.83" y1="560.83" x2="1880.63" y2="614.78" xlink:href="#Degradado_sin_nombre_11"/><linearGradient id="Degradado_sin_nombre_11-13" x1="1886.48" y1="528.38" x2="2014.15" y2="628.49" xlink:href="#Degradado_sin_nombre_11"/><linearGradient id="Degradado_sin_nombre_11-14" x1="2061.53" y1="529.59" x2="2186.73" y2="627.76" xlink:href="#Degradado_sin_nombre_11"/></defs><title>logoDegradadoAzulSinFondoConLetras</title><g id="Compo_con_letras_degradado_azul" data-name="Compo con letras degradado azul"><g id="logo"><path class="cls-1" d="M1072.76,608.76v25h21.29a92.53,92.53,0,0,1-45.79,45v-168a92.24,92.24,0,0,1,53.82,73h25.16a117.2,117.2,0,0,0-104-105.33V711.09a117.23,117.23,0,0,0,103.66-102.33Z" transform="translate(-808.67 -392.73)"/><path class="cls-2" d="M893.76,594.76a117.16,117.16,0,0,0,104.5,116.33V478.43A117.16,117.16,0,0,0,893.76,594.76Zm79.5,84a92,92,0,0,1,0-168Z" transform="translate(-808.67 -392.73)"/><path class="cls-3" d="M1049.58,458.22c-13.42-8.43-27.57-16.26-36.7-18.32a131.88,131.88,0,0,1-8,13.07A143,143,0,0,1,1049.58,458.22Z" transform="translate(-808.67 -392.73)"/><path class="cls-4" d="M869,588.84a131.88,131.88,0,0,1-13.07,8c2.06,9.13,9.89,23.29,18.32,36.7A143,143,0,0,1,869,588.84Z" transform="translate(-808.67 -392.73)"/><path class="cls-5" d="M910.36,494.36a141.07,141.07,0,0,1,67-37.57,131.58,131.58,0,0,0-31-12.65s-4.24,9.9-14.85,29c0,0-40.3-14.85-58-15.56.71,17.68,15.56,58,15.56,58-19.1,10.61-29,14.85-29,14.85a131.58,131.58,0,0,0,12.65,31A141.12,141.12,0,0,1,910.36,494.36Z" transform="translate(-808.67 -392.73)"/><path class="cls-6" d="M1010.76,761.71a165.89,165.89,0,0,1-118.06-48.9c-23.62-23.62-66.22-79.29-79.94-128.1l-4.09-14.53,15-1.31a65.3,65.3,0,0,0,12.44-2.67,256.66,256.66,0,0,1-16.49-49.31l-3.51-15.66,15.63.42c.75,0,6.52-.43,15.8-3.76-5-16.33-13.77-47.1-15.08-68.14l-.88-14.13,14.13.88c21,1.31,51.81,10,68.14,15.08,3.33-9.28,3.72-15.05,3.76-15.8l-.43-16,15.67,3.84a256.66,256.66,0,0,1,49.31,16.49,65.39,65.39,0,0,0,2.67-12.48l1.39-14.94,14.45,4c48.81,13.72,104.48,56.32,128.1,79.94a167,167,0,0,1-118,285ZM841.13,590.82c15,39.13,48.15,83.22,69.25,104.31a142,142,0,1,0,200.75-200.75c-21.09-21.1-65.18-54.23-104.31-69.25a69.92,69.92,0,0,1-8.19,18.73l-6.45,10-10.29-5.92c-.17-.1-16.61-9.41-41.74-16.6a119.65,119.65,0,0,1-7.93,21.09l-4.8,10L917,458.81c-.38-.13-31.92-10.73-57.51-15.37,4.64,25.6,15.24,57.13,15.37,57.51l3.55,10.47-10,4.8a120.9,120.9,0,0,1-21.09,7.94c7.21,25.27,16.49,41.55,16.6,41.73l5.92,10.29-10,6.45A69.92,69.92,0,0,1,841.13,590.82Z" transform="translate(-808.67 -392.73)"/></g><g id="MeteorDG"><path class="cls-7" d="M1235.94,649.73V503.49h44.19l26.54,99.76,26.23-99.76h44.29V649.73h-27.43V534.62l-29,115.11H1292.3l-28.93-115.11V649.73Z" transform="translate(-808.67 -392.73)"/><path class="cls-8" d="M1467.67,616l27.93,4.68q-5.38,15.38-17,23.4t-29.07,8q-27.64,0-40.9-18.06-10.48-14.46-10.48-36.51,0-26.32,13.77-41.25t34.81-14.91q23.64,0,37.31,15.61t13.07,47.83h-70.23q.3,12.48,6.78,19.41a21.23,21.23,0,0,0,16.16,6.93,17.22,17.22,0,0,0,11.08-3.59Q1465.38,624,1467.67,616Zm1.6-28.33q-.3-12.18-6.29-18.51a19.28,19.28,0,0,0-14.56-6.33,19.48,19.48,0,0,0-15.16,6.68q-6,6.69-5.89,18.16Z" transform="translate(-808.67 -392.73)"/><path class="cls-9" d="M1568.52,543.79v22.35h-19.15v42.69q0,13,.55,15.12a6.11,6.11,0,0,0,2.49,3.54,7.93,7.93,0,0,0,4.74,1.39q3.88,0,11.27-2.69l2.4,21.75a55.79,55.79,0,0,1-22.15,4.19,35.09,35.09,0,0,1-13.67-2.55q-6.07-2.54-8.92-6.58a25.86,25.86,0,0,1-3.94-10.92q-.9-4.89-.9-19.75V566.14h-12.87V543.79h12.87v-21l28.13-16.36v37.4Z" transform="translate(-808.67 -392.73)"/><path class="cls-10" d="M1649.32,616l27.93,4.68q-5.38,15.38-17,23.4t-29.08,8q-27.63,0-40.9-18.06-10.47-14.46-10.48-36.51,0-26.32,13.77-41.25t34.81-14.91q23.66,0,37.31,15.61t13.07,47.83h-70.23q.3,12.48,6.79,19.41a21.22,21.22,0,0,0,16.16,6.93,17.17,17.17,0,0,0,11.07-3.59Q1647,624,1649.32,616Zm1.6-28.33q-.3-12.18-6.29-18.51a19.28,19.28,0,0,0-14.56-6.33,19.48,19.48,0,0,0-15.16,6.68q-6,6.69-5.89,18.16Z" transform="translate(-808.67 -392.73)"/><path class="cls-11" d="M1695.11,595.27a57.34,57.34,0,0,1,6.88-27,47.24,47.24,0,0,1,19.51-20,57.83,57.83,0,0,1,28.18-6.88q24,0,39.4,15.61t15.36,39.45q0,24-15.51,39.86t-39,15.81a61.51,61.51,0,0,1-27.79-6.59,45.17,45.17,0,0,1-20.1-19.3Q1695.11,613.52,1695.11,595.27Zm28.73,1.49q0,15.76,7.48,24.14a24.46,24.46,0,0,0,36.86,0q7.42-8.37,7.43-24.34,0-15.55-7.43-23.94a24.46,24.46,0,0,0-36.86,0Q1723.84,581,1723.84,596.76Z" transform="translate(-808.67 -392.73)"/><path class="cls-12" d="M1853.22,649.73h-28V543.79h26v15.07q6.68-10.68,12-14.07a22.08,22.08,0,0,1,12.12-3.39,35.53,35.53,0,0,1,18.45,5.29l-8.68,24.44q-7.08-4.59-13.17-4.59a15.54,15.54,0,0,0-10,3.24q-4.1,3.24-6.44,11.72T1853.22,617Z" transform="translate(-808.67 -392.73)"/><path class="cls-13" d="M1906,503.49h54q18.26,0,27.83,2.8a48.91,48.91,0,0,1,22,13.46,63.91,63.91,0,0,1,14,23.7q4.79,14,4.79,34.56,0,18.06-4.49,31.12-5.49,16-15.66,25.84-7.68,7.49-20.75,11.67-9.78,3.09-26.14,3.09H1906Zm29.53,24.74v96.86h22q12.38,0,17.86-1.39a27.28,27.28,0,0,0,11.92-6.09q4.74-4.29,7.73-14.11t3-26.79q0-17-3-26t-8.38-14.17a28.14,28.14,0,0,0-13.67-6.88q-6.18-1.39-24.24-1.4Z" transform="translate(-808.67 -392.73)"/><path class="cls-14" d="M2121.66,596V571.33h63.64v58.25q-9.27,9-26.88,15.81a97.79,97.79,0,0,1-35.66,6.84q-23,0-40-9.63a61.2,61.2,0,0,1-25.63-27.53,89,89,0,0,1-8.58-39q0-22.83,9.57-40.6a64.56,64.56,0,0,1,28-27.23q14.05-7.27,35-7.28,27.23,0,42.54,11.42T2183.41,544l-29.33,5.49a31,31,0,0,0-11.62-17q-8.53-6.22-21.3-6.23-19.35,0-30.77,12.27T2079,574.92q0,26,11.57,39.05t30.33,13a50.76,50.76,0,0,0,18.6-3.64,63.64,63.64,0,0,0,16-8.83V596Z" transform="translate(-808.67 -392.73)"/></g></g></svg>